<svg width="20" height="21" viewBox="0 0 20 21" fill="none" xmlns="http://www.w3.org/2000/svg">
<path fill-rule="evenodd" clip-rule="evenodd" d="M15.8334 9.66667H5.94587L8.97337 6.03334C9.26837 5.68001 9.22004 5.15417 8.86671 4.86001C8.51254 4.56501 7.98754 4.61334 7.69337 4.96667L3.52671 9.96667C3.49421 10.0058 3.47754 10.0517 3.45337 10.095C3.43337 10.13 3.40921 10.16 3.39421 10.1983C3.35671 10.2942 3.33421 10.395 3.33421 10.4967C3.33421 10.4975 3.33337 10.4992 3.33337 10.5C3.33337 10.5008 3.33421 10.5025 3.33421 10.5033C3.33421 10.605 3.35671 10.7058 3.39421 10.8017C3.40921 10.84 3.43337 10.87 3.45337 10.905C3.47754 10.9483 3.49421 10.9942 3.52671 11.0333L7.69337 16.0333C7.85837 16.2308 8.09504 16.3333 8.33337 16.3333C8.52171 16.3333 8.71087 16.27 8.86671 16.14C9.22004 15.8458 9.26837 15.32 8.97337 14.9667L5.94587 11.3333H15.8334C16.2934 11.3333 16.6667 10.96 16.6667 10.5C16.6667 10.04 16.2934 9.66667 15.8334 9.66667" fill="#798594"/>
<mask id="mask0_899:6397" style="mask-type:alpha" maskUnits="userSpaceOnUse" x="3" y="4" width="14" height="13">
<path fill-rule="evenodd" clip-rule="evenodd" d="M15.8334 9.66667H5.94587L8.97337 6.03334C9.26837 5.68001 9.22004 5.15417 8.86671 4.86001C8.51254 4.56501 7.98754 4.61334 7.69337 4.96667L3.52671 9.96667C3.49421 10.0058 3.47754 10.0517 3.45337 10.095C3.43337 10.13 3.40921 10.16 3.39421 10.1983C3.35671 10.2942 3.33421 10.395 3.33421 10.4967C3.33421 10.4975 3.33337 10.4992 3.33337 10.5C3.33337 10.5008 3.33421 10.5025 3.33421 10.5033C3.33421 10.605 3.35671 10.7058 3.39421 10.8017C3.40921 10.84 3.43337 10.87 3.45337 10.905C3.47754 10.9483 3.49421 10.9942 3.52671 11.0333L7.69337 16.0333C7.85837 16.2308 8.09504 16.3333 8.33337 16.3333C8.52171 16.3333 8.71087 16.27 8.86671 16.14C9.22004 15.8458 9.26837 15.32 8.97337 14.9667L5.94587 11.3333H15.8334C16.2934 11.3333 16.6667 10.96 16.6667 10.5C16.6667 10.04 16.2934 9.66667 15.8334 9.66667" fill="white"/>
</mask>
</svg>
