<svg width="20" height="21" viewBox="0 0 20 21" fill="none" xmlns="http://www.w3.org/2000/svg">
  <g id="Icon/Fill/arrow-ios-down">
    <path id="Mask" fill-rule="evenodd" clip-rule="evenodd"
          d="M10 13.8334C9.81001 13.8334 9.62084 13.7692 9.46667 13.6401L4.46667 9.4734C4.11334 9.17923 4.06501 8.6534 4.36001 8.30007C4.65417 7.94673 5.17917 7.89923 5.53334 8.1934L10.0092 11.9234L14.4775 8.32757C14.8358 8.03923 15.3608 8.0959 15.6492 8.45423C15.9375 8.81257 15.8808 9.33673 15.5225 9.6259L10.5225 13.6492C10.37 13.7717 10.185 13.8334 10 13.8334"
          fill="#798594"/>
    <mask id="mask0_571:15083" style="mask-type:alpha" maskUnits="userSpaceOnUse" x="4" y="8" width="12" height="6">
      <path id="Mask_2" fill-rule="evenodd" clip-rule="evenodd"
            d="M10 13.8334C9.81001 13.8334 9.62084 13.7692 9.46667 13.6401L4.46667 9.4734C4.11334 9.17923 4.06501 8.6534 4.36001 8.30007C4.65417 7.94673 5.17917 7.89923 5.53334 8.1934L10.0092 11.9234L14.4775 8.32757C14.8358 8.03923 15.3608 8.0959 15.6492 8.45423C15.9375 8.81257 15.8808 9.33673 15.5225 9.6259L10.5225 13.6492C10.37 13.7717 10.185 13.8334 10 13.8334"
            fill="white"/>
    </mask>
  </g>
</svg>
