<svg width="16" height="16" viewBox="0 0 16 16" fill="none" xmlns="http://www.w3.org/2000/svg">
<path fill-rule="evenodd" clip-rule="evenodd" d="M12.6667 7.33344H4.75675L7.17875 4.42677C7.41475 4.1441 7.37608 3.72344 7.09341 3.4881C6.81008 3.2521 6.39008 3.29077 6.15475 3.57344L2.82141 7.57344C2.79541 7.60477 2.78208 7.64144 2.76275 7.6761C2.74675 7.7041 2.72741 7.7281 2.71541 7.75877C2.68541 7.83544 2.66741 7.9161 2.66741 7.99744C2.66741 7.9981 2.66675 7.99944 2.66675 8.0001C2.66675 8.00077 2.66741 8.0021 2.66741 8.00277C2.66741 8.0841 2.68541 8.16477 2.71541 8.24144C2.72741 8.2721 2.74675 8.2961 2.76275 8.3241C2.78208 8.35877 2.79541 8.39544 2.82141 8.42677L6.15475 12.4268C6.28675 12.5848 6.47608 12.6668 6.66675 12.6668C6.81741 12.6668 6.96875 12.6161 7.09341 12.5121C7.37608 12.2768 7.41475 11.8561 7.17875 11.5734L4.75675 8.66677H12.6667C13.0347 8.66677 13.3334 8.3681 13.3334 8.0001C13.3334 7.6321 13.0347 7.33344 12.6667 7.33344Z" fill="#2C333F"/>
<mask id="mask1" mask-type="alpha" maskUnits="userSpaceOnUse" x="2" y="3" width="12" height="10">
<path fill-rule="evenodd" clip-rule="evenodd" d="M12.6667 7.33344H4.75675L7.17875 4.42677C7.41475 4.1441 7.37608 3.72344 7.09341 3.4881C6.81008 3.2521 6.39008 3.29077 6.15475 3.57344L2.82141 7.57344C2.79541 7.60477 2.78208 7.64144 2.76275 7.6761C2.74675 7.7041 2.72741 7.7281 2.71541 7.75877C2.68541 7.83544 2.66741 7.9161 2.66741 7.99744C2.66741 7.9981 2.66675 7.99944 2.66675 8.0001C2.66675 8.00077 2.66741 8.0021 2.66741 8.00277C2.66741 8.0841 2.68541 8.16477 2.71541 8.24144C2.72741 8.2721 2.74675 8.2961 2.76275 8.3241C2.78208 8.35877 2.79541 8.39544 2.82141 8.42677L6.15475 12.4268C6.28675 12.5848 6.47608 12.6668 6.66675 12.6668C6.81741 12.6668 6.96875 12.6161 7.09341 12.5121C7.37608 12.2768 7.41475 11.8561 7.17875 11.5734L4.75675 8.66677H12.6667C13.0347 8.66677 13.3334 8.3681 13.3334 8.0001C13.3334 7.6321 13.0347 7.33344 12.6667 7.33344Z" fill="white"/>
</mask>
<g mask="url(#mask1)">
<rect width="16" height="16" fill="#2C333F"/>
</g>
</svg>
