<svg width="20" height="21" viewBox="0 0 20 21" fill="none" xmlns="http://www.w3.org/2000/svg">
<path fill-rule="evenodd" clip-rule="evenodd" d="M17.4974 9.64508H17.4999C17.959 9.64508 18.3324 10.0167 18.3332 10.4759C18.3399 12.7017 17.479 14.7976 15.909 16.3759C14.3399 17.9542 12.2499 18.8267 10.024 18.8334H9.99988C7.78238 18.8334 5.69654 17.9734 4.12404 16.4092C2.54571 14.8401 1.67321 12.7501 1.66654 10.5242C1.65988 8.29758 2.52071 6.20258 4.09071 4.62425C5.65988 3.04591 7.74988 2.17341 9.97571 2.16675C10.6382 2.17675 11.3132 2.24341 11.9599 2.39841C12.4065 2.50675 12.6824 2.95675 12.574 3.40425C12.4665 3.85091 12.014 4.12591 11.569 4.01925C11.0515 3.89425 10.5024 3.84175 9.98071 3.83341C8.19988 3.83841 6.52738 4.53675 5.27238 5.79925C4.01654 7.06175 3.32821 8.73841 3.33321 10.5192C3.33821 12.3001 4.03654 13.9717 5.29904 15.2276C6.55738 16.4784 8.22571 17.1667 9.99988 17.1667H10.019C11.7999 17.1617 13.4724 16.4634 14.7274 15.2009C15.9832 13.9376 16.6715 12.2617 16.6665 10.4809C16.6657 10.0209 17.0374 9.64591 17.4974 9.64508ZM6.91071 9.91083C7.23654 9.585 7.76321 9.585 8.08904 9.91083L9.95904 11.7808L15.2065 5.78416C15.5099 5.44 16.0357 5.40333 16.3824 5.70667C16.7282 6.00917 16.7632 6.53583 16.4599 6.8825L10.6265 13.5492C10.4749 13.7225 10.2582 13.825 10.0274 13.8333H9.99988C9.77904 13.8333 9.56737 13.7458 9.41071 13.5892L6.91071 11.0892C6.58488 10.7633 6.58488 10.2367 6.91071 9.91083Z" fill="#04AF00"/>
<mask id="mask0_677:14464" style="mask-type:alpha" maskUnits="userSpaceOnUse" x="1" y="2" width="18" height="17">
<path fill-rule="evenodd" clip-rule="evenodd" d="M17.4974 9.64508H17.4999C17.959 9.64508 18.3324 10.0167 18.3332 10.4759C18.3399 12.7017 17.479 14.7976 15.909 16.3759C14.3399 17.9542 12.2499 18.8267 10.024 18.8334H9.99988C7.78238 18.8334 5.69654 17.9734 4.12404 16.4092C2.54571 14.8401 1.67321 12.7501 1.66654 10.5242C1.65988 8.29758 2.52071 6.20258 4.09071 4.62425C5.65988 3.04591 7.74988 2.17341 9.97571 2.16675C10.6382 2.17675 11.3132 2.24341 11.9599 2.39841C12.4065 2.50675 12.6824 2.95675 12.574 3.40425C12.4665 3.85091 12.014 4.12591 11.569 4.01925C11.0515 3.89425 10.5024 3.84175 9.98071 3.83341C8.19988 3.83841 6.52738 4.53675 5.27238 5.79925C4.01654 7.06175 3.32821 8.73841 3.33321 10.5192C3.33821 12.3001 4.03654 13.9717 5.29904 15.2276C6.55738 16.4784 8.22571 17.1667 9.99988 17.1667H10.019C11.7999 17.1617 13.4724 16.4634 14.7274 15.2009C15.9832 13.9376 16.6715 12.2617 16.6665 10.4809C16.6657 10.0209 17.0374 9.64591 17.4974 9.64508ZM6.91071 9.91083C7.23654 9.585 7.76321 9.585 8.08904 9.91083L9.95904 11.7808L15.2065 5.78416C15.5099 5.44 16.0357 5.40333 16.3824 5.70667C16.7282 6.00917 16.7632 6.53583 16.4599 6.8825L10.6265 13.5492C10.4749 13.7225 10.2582 13.825 10.0274 13.8333H9.99988C9.77904 13.8333 9.56737 13.7458 9.41071 13.5892L6.91071 11.0892C6.58488 10.7633 6.58488 10.2367 6.91071 9.91083Z" fill="white"/>
</mask>
<g mask="url(#mask0_677:14464)">
<rect y="0.5" width="20" height="20" fill="#04AF00"/>
</g>
</svg>
