<svg width="20" height="21" viewBox="0 0 20 21" fill="none" xmlns="http://www.w3.org/2000/svg">
<path fill-rule="evenodd" clip-rule="evenodd" d="M13.3332 9.66675H10.8332V7.16675C10.8332 6.70591 10.4598 6.33341 9.99984 6.33341C9.53984 6.33341 9.1665 6.70591 9.1665 7.16675V10.5001C9.1665 10.9609 9.53984 11.3334 9.99984 11.3334H13.3332C13.794 11.3334 14.1665 10.9609 14.1665 10.5001C14.1665 10.0392 13.794 9.66675 13.3332 9.66675ZM9.99984 17.1667C6.324 17.1667 3.33317 14.1759 3.33317 10.5001C3.33317 6.82425 6.324 3.83341 9.99984 3.83341C13.6757 3.83341 16.6665 6.82425 16.6665 10.5001C16.6665 14.1759 13.6757 17.1667 9.99984 17.1667ZM9.99984 2.16675C5.40484 2.16675 1.6665 5.90508 1.6665 10.5001C1.6665 15.0951 5.40484 18.8334 9.99984 18.8334C14.5948 18.8334 18.3332 15.0951 18.3332 10.5001C18.3332 5.90508 14.5948 2.16675 9.99984 2.16675Z" fill="#FF8A00"/>
<mask id="mask0_677:14778" style="mask-type:alpha" maskUnits="userSpaceOnUse" x="1" y="2" width="18" height="17">
<path fill-rule="evenodd" clip-rule="evenodd" d="M13.3332 9.66675H10.8332V7.16675C10.8332 6.70591 10.4598 6.33341 9.99984 6.33341C9.53984 6.33341 9.1665 6.70591 9.1665 7.16675V10.5001C9.1665 10.9609 9.53984 11.3334 9.99984 11.3334H13.3332C13.794 11.3334 14.1665 10.9609 14.1665 10.5001C14.1665 10.0392 13.794 9.66675 13.3332 9.66675ZM9.99984 17.1667C6.324 17.1667 3.33317 14.1759 3.33317 10.5001C3.33317 6.82425 6.324 3.83341 9.99984 3.83341C13.6757 3.83341 16.6665 6.82425 16.6665 10.5001C16.6665 14.1759 13.6757 17.1667 9.99984 17.1667ZM9.99984 2.16675C5.40484 2.16675 1.6665 5.90508 1.6665 10.5001C1.6665 15.0951 5.40484 18.8334 9.99984 18.8334C14.5948 18.8334 18.3332 15.0951 18.3332 10.5001C18.3332 5.90508 14.5948 2.16675 9.99984 2.16675Z" fill="white"/>
</mask>
<g mask="url(#mask0_677:14778)">
<rect y="0.5" width="20" height="20" fill="#FF8A00"/>
</g>
</svg>
