<svg width="20" height="21" viewBox="0 0 20 21" fill="none" xmlns="http://www.w3.org/2000/svg">
<path fill-rule="evenodd" clip-rule="evenodd" d="M7.5 11.3333V10.5C7.5 9.12167 8.62167 8 10 8H10.8333V5.2225C10.8333 4.91583 10.5842 4.66667 10.2775 4.66667H4.7225C4.41583 4.66667 4.16667 4.91583 4.16667 5.2225V10.7775C4.16667 11.0842 4.41583 11.3333 4.7225 11.3333H7.5ZM7.5 13H4.7225C3.49667 13 2.5 12.0033 2.5 10.7775V5.2225C2.5 3.99667 3.49667 3 4.7225 3H10.2775C11.5033 3 12.5 3.99667 12.5 5.2225V8H15C16.3783 8 17.5 9.12167 17.5 10.5V15.5C17.5 16.8783 16.3783 18 15 18H10C8.62167 18 7.5 16.8783 7.5 15.5V13ZM9.16667 10.5C9.16667 10.0408 9.54083 9.66667 10 9.66667H15C15.46 9.66667 15.8333 10.0408 15.8333 10.5V15.5C15.8333 15.9592 15.46 16.3333 15 16.3333H10C9.54083 16.3333 9.16667 15.9592 9.16667 15.5V10.5Z" fill="#798594"/>
<mask id="mask0_1535_5431" style="mask-type:alpha" maskUnits="userSpaceOnUse" x="2" y="3" width="16" height="15">
<path fill-rule="evenodd" clip-rule="evenodd" d="M7.5 11.3333V10.5C7.5 9.12167 8.62167 8 10 8H10.8333V5.2225C10.8333 4.91583 10.5842 4.66667 10.2775 4.66667H4.7225C4.41583 4.66667 4.16667 4.91583 4.16667 5.2225V10.7775C4.16667 11.0842 4.41583 11.3333 4.7225 11.3333H7.5ZM7.5 13H4.7225C3.49667 13 2.5 12.0033 2.5 10.7775V5.2225C2.5 3.99667 3.49667 3 4.7225 3H10.2775C11.5033 3 12.5 3.99667 12.5 5.2225V8H15C16.3783 8 17.5 9.12167 17.5 10.5V15.5C17.5 16.8783 16.3783 18 15 18H10C8.62167 18 7.5 16.8783 7.5 15.5V13ZM9.16667 10.5C9.16667 10.0408 9.54083 9.66667 10 9.66667H15C15.46 9.66667 15.8333 10.0408 15.8333 10.5V15.5C15.8333 15.9592 15.46 16.3333 15 16.3333H10C9.54083 16.3333 9.16667 15.9592 9.16667 15.5V10.5Z" fill="white"/>
</mask>
</svg>
