<svg width="20" height="19" viewBox="0 0 20 19" fill="none" xmlns="http://www.w3.org/2000/svg">
<path fill-rule="evenodd" clip-rule="evenodd" d="M10 0.5C12.581 0.5 14.855 2.161 15.675 4.545C18.114 4.876 20 6.972 20 9.5C20 10.721 19.556 11.896 18.75 12.809C18.552 13.032 18.277 13.147 18 13.147C17.765 13.147 17.529 13.065 17.338 12.897C16.925 12.53 16.885 11.899 17.251 11.484C17.734 10.938 18 10.232 18 9.5C18 7.846 16.654 6.5 15 6.5H14.9C14.424 6.5 14.014 6.164 13.92 5.697C13.546 3.845 11.898 2.5 10 2.5C8.103 2.5 6.454 3.845 6.081 5.697C5.987 6.164 5.576 6.5 5.1 6.5H5C3.346 6.5 2 7.846 2 9.5C2 10.232 2.266 10.938 2.75 11.484C3.115 11.899 3.076 12.53 2.662 12.897C2.248 13.263 1.616 13.222 1.251 12.809C0.444 11.896 0 10.721 0 9.5C0 6.972 1.886 4.876 4.325 4.545C5.146 2.161 7.42 0.5 10 0.5ZM9.3052 8.7801C9.6992 8.4041 10.3222 8.4071 10.7072 8.7931L13.7072 11.7931C14.0982 12.1841 14.0982 12.8161 13.7072 13.2071C13.5122 13.4021 13.2562 13.5001 13.0002 13.5001C12.7442 13.5001 12.4882 13.4021 12.2932 13.2071L11.0002 11.9141V17.5001C11.0002 18.0531 10.5522 18.5001 10.0002 18.5001C9.4482 18.5001 9.0002 18.0531 9.0002 17.5001V11.8561L7.6952 13.1161C7.2982 13.5011 6.6652 13.4881 6.2812 13.0911C5.8972 12.6931 5.9082 12.0611 6.3052 11.6771L9.3052 8.7801Z" fill="#EF0D33"/>
</svg>
