<svg width="20" height="21" viewBox="0 0 20 21" fill="none" xmlns="http://www.w3.org/2000/svg">
  <path fill-rule="evenodd" clip-rule="evenodd"
        d="M13.3489 9.39881L11.103 7.15298L12.7264 5.52881L14.9714 7.77381L13.3489 9.39881ZM7.56638 15.1871L5.08554 15.413L5.30554 12.9496L9.98638 8.26881L12.233 10.5155L7.56638 15.1871ZM16.1697 6.61465L16.1689 6.61381L13.8872 4.33215C13.2697 3.71631 12.2089 3.68715 11.6239 4.27465L4.12721 11.7713C3.85554 12.0421 3.68721 12.4021 3.65221 12.783L3.33638 16.258C3.31471 16.5038 3.40221 16.7471 3.57721 16.9221C3.73471 17.0796 3.94721 17.1663 4.16638 17.1663C4.19221 17.1663 4.21721 17.1655 4.24221 17.163L7.71721 16.8471C8.09888 16.8121 8.45804 16.6446 8.72888 16.3738L16.2264 8.87631C16.833 8.26798 16.8072 7.25298 16.1697 6.61465Z"
        fill="#798594"/>
  <mask id="mask6" style="mask-type:alpha" maskUnits="userSpaceOnUse" x="3" y="3" width="14" height="15">
    <path fill-rule="evenodd" clip-rule="evenodd"
          d="M13.3489 9.39881L11.103 7.15298L12.7264 5.52881L14.9714 7.77381L13.3489 9.39881ZM7.56638 15.1871L5.08554 15.413L5.30554 12.9496L9.98638 8.26881L12.233 10.5155L7.56638 15.1871ZM16.1697 6.61465L16.1689 6.61381L13.8872 4.33215C13.2697 3.71631 12.2089 3.68715 11.6239 4.27465L4.12721 11.7713C3.85554 12.0421 3.68721 12.4021 3.65221 12.783L3.33638 16.258C3.31471 16.5038 3.40221 16.7471 3.57721 16.9221C3.73471 17.0796 3.94721 17.1663 4.16638 17.1663C4.19221 17.1663 4.21721 17.1655 4.24221 17.163L7.71721 16.8471C8.09888 16.8121 8.45804 16.6446 8.72888 16.3738L16.2264 8.87631C16.833 8.26798 16.8072 7.25298 16.1697 6.61465Z"
          fill="white"/>
  </mask>
</svg>
