<svg width="28" height="26" viewBox="0 0 28 26" fill="none" xmlns="http://www.w3.org/2000/svg">
<path d="M17.5812 12.3499L6.51221 10.3999V24.8089C6.51234 24.9654 6.5433 25.1204 6.60332 25.265C6.66335 25.4096 6.75126 25.5409 6.86204 25.6515C6.97282 25.7621 7.1043 25.8498 7.24897 25.9095C7.39364 25.9693 7.54867 26 7.70521 25.9999H26.8052C26.9619 26.0003 27.1172 25.9698 27.2621 25.9101C27.407 25.8505 27.5387 25.7628 27.6497 25.6522C27.7607 25.5416 27.8487 25.4101 27.9089 25.2654C27.969 25.1207 28.0001 24.9656 28.0002 24.8089V19.4999L17.5812 12.3499Z" fill="#185C37"/>
<path d="M17.5812 4.19854e-07H7.70521C7.54867 -0.000130957 7.39364 0.0305709 7.24897 0.0903532C7.1043 0.150135 6.97282 0.237827 6.86204 0.348422C6.75126 0.459017 6.66335 0.590348 6.60332 0.734918C6.5433 0.879488 6.51234 1.03446 6.51221 1.191V6.5L17.5812 13L23.4422 14.95L28.0002 13V6.5L17.5812 4.19854e-07Z" fill="#21A366"/>
<path d="M6.51221 6.5H17.5812V13H6.51221V6.5Z" fill="#107C41"/>
<path opacity="0.1" d="M14.4342 5.19995H6.51221V21.45H14.4342C14.7499 21.4484 15.0522 21.3225 15.2757 21.0996C15.4992 20.8766 15.6258 20.5746 15.6282 20.259V6.39095C15.6258 6.07529 15.4992 5.77327 15.2757 5.55034C15.0522 5.32741 14.7499 5.20152 14.4342 5.19995Z" fill="black"/>
<path opacity="0.2" d="M13.7832 5.8501H6.51221V22.1001H13.7832C14.0989 22.0985 14.4012 21.9726 14.6247 21.7497C14.8482 21.5268 14.9748 21.2248 14.9772 20.9091V7.0411C14.9748 6.72544 14.8482 6.42342 14.6247 6.20049C14.4012 5.97756 14.0989 5.85167 13.7832 5.8501Z" fill="black"/>
<path opacity="0.2" d="M13.7832 5.8501H6.51221V20.8001H13.7832C14.0989 20.7985 14.4012 20.6726 14.6247 20.4497C14.8482 20.2268 14.9748 19.9248 14.9772 19.6091V7.0411C14.9748 6.72544 14.8482 6.42342 14.6247 6.20049C14.4012 5.97756 14.0989 5.85167 13.7832 5.8501Z" fill="black"/>
<path opacity="0.2" d="M13.1322 5.8501H6.51221V20.8001H13.1322C13.4479 20.7985 13.7502 20.6726 13.9737 20.4497C14.1972 20.2268 14.3238 19.9248 14.3262 19.6091V7.0411C14.3238 6.72544 14.1972 6.42342 13.9737 6.20049C13.7502 5.97756 13.4479 5.85167 13.1322 5.8501Z" fill="black"/>
<path d="M1.194 5.8501H13.132C13.4482 5.84983 13.7516 5.97513 13.9755 6.19846C14.1994 6.42179 14.3255 6.72487 14.326 7.0411V18.9591C14.3255 19.2753 14.1994 19.5784 13.9755 19.8017C13.7516 20.0251 13.4482 20.1504 13.132 20.1501H1.194C1.03738 20.1504 0.882244 20.1198 0.737458 20.06C0.592672 20.0003 0.461075 19.9126 0.350189 19.802C0.239303 19.6914 0.151301 19.56 0.0912137 19.4154C0.0311263 19.2708 0.000131172 19.1157 0 18.9591V7.0411C0.000131172 6.88448 0.0311263 6.72942 0.0912137 6.58479C0.151301 6.44015 0.239303 6.30877 0.350189 6.19817C0.461075 6.08756 0.592672 5.99989 0.737458 5.94016C0.882244 5.88044 1.03738 5.84984 1.194 5.8501Z" fill="url(#paint0_linear_200:7361)"/>
<path d="M3.7002 16.873L6.2112 12.989L3.9112 9.12695H5.7582L7.0132 11.6C7.12919 11.834 7.2132 12.008 7.2512 12.124H7.2682C7.3502 11.936 7.4372 11.755 7.5282 11.578L8.8702 9.13095H10.5702L8.2112 12.971L10.6302 16.876H8.8212L7.3712 14.165C7.30387 14.0484 7.24666 13.9263 7.2002 13.8H7.1762C7.13391 13.923 7.07754 14.0408 7.0082 14.151L5.5152 16.873H3.7002Z" fill="white"/>
<path d="M26.8061 1.6787e-06H17.5811V6.5H28.0001V1.191C27.9999 1.03438 27.9689 0.879323 27.9088 0.734688C27.8488 0.590053 27.7608 0.458677 27.6499 0.348069C27.539 0.237462 27.4074 0.149791 27.2626 0.0900672C27.1178 0.0303438 26.9627 -0.000261161 26.8061 1.6787e-06Z" fill="#33C481"/>
<path d="M17.5811 13H28.0001V19.5H17.5811V13Z" fill="#107C41"/>
<defs>
<linearGradient id="paint0_linear_200:7361" x1="2.494" y1="4.9141" x2="11.832" y2="21.0861" gradientUnits="userSpaceOnUse">
<stop stop-color="#18884F"/>
<stop offset="0.5" stop-color="#117E43"/>
<stop offset="1" stop-color="#0B6631"/>
</linearGradient>
</defs>
</svg>
