<svg width="16" height="17" viewBox="0 0 16 17" fill="none" xmlns="http://www.w3.org/2000/svg">
<path fill-rule="evenodd" clip-rule="evenodd" d="M7.25132 12.138L8.60199 13.16V10.1247C8.60199 10.014 8.62999 9.90532 8.68199 9.80799L11.5487 4.49999H4.42866L7.17666 9.81866C7.22599 9.91332 7.25132 10.0187 7.25132 10.1247V12.138ZM9.26866 15.1667C9.12666 15.1667 8.98466 15.1213 8.86666 15.0313L6.18266 13.0013C6.01599 12.8753 5.91799 12.6787 5.91799 12.47V10.2873L2.74132 4.13932C2.63399 3.93266 2.64266 3.68532 2.76399 3.48666C2.88466 3.28799 3.10066 3.16666 3.33332 3.16666H12.6667C12.9013 3.16666 13.1187 3.28999 13.2393 3.49199C13.3593 3.69332 13.3647 3.94332 13.2533 4.14999L9.93532 10.2933V14.5C9.93532 14.7527 9.79266 14.984 9.56599 15.0967C9.47199 15.1433 9.36999 15.1667 9.26866 15.1667Z" fill="#798594"/>
<mask id="mask0_2239_8563" style="mask-type:alpha" maskUnits="userSpaceOnUse" x="2" y="3" width="12" height="13">
<path fill-rule="evenodd" clip-rule="evenodd" d="M7.25132 12.138L8.60199 13.16V10.1247C8.60199 10.014 8.62999 9.90532 8.68199 9.80799L11.5487 4.49999H4.42866L7.17666 9.81866C7.22599 9.91332 7.25132 10.0187 7.25132 10.1247V12.138ZM9.26866 15.1667C9.12666 15.1667 8.98466 15.1213 8.86666 15.0313L6.18266 13.0013C6.01599 12.8753 5.91799 12.6787 5.91799 12.47V10.2873L2.74132 4.13932C2.63399 3.93266 2.64266 3.68532 2.76399 3.48666C2.88466 3.28799 3.10066 3.16666 3.33332 3.16666H12.6667C12.9013 3.16666 13.1187 3.28999 13.2393 3.49199C13.3593 3.69332 13.3647 3.94332 13.2533 4.14999L9.93532 10.2933V14.5C9.93532 14.7527 9.79266 14.984 9.56599 15.0967C9.47199 15.1433 9.36999 15.1667 9.26866 15.1667Z" fill="white"/>
</mask>
</svg>
