<svg width="24" height="24" viewBox="0 0 24 24" fill="none" xmlns="http://www.w3.org/2000/svg">
<path fill-rule="evenodd" clip-rule="evenodd" d="M13.9588 18.0234C13.2918 18.6604 12.4088 19.0064 11.4708 19.0004H11.4698C10.5328 18.9924 9.65575 18.6314 8.99975 17.9844C7.65075 16.6554 7.66875 14.5074 9.04075 13.1984L11.2038 11.1304C11.2928 11.0454 11.4128 10.9994 11.5388 11.0004C11.6638 11.0014 11.7838 11.0494 11.8708 11.1354L13.9998 13.2364C15.3488 14.5664 15.3308 16.7134 13.9588 18.0234ZM16.8058 7.9864L12.2128 3.2954C11.8308 2.9044 11.1938 2.9044 10.7978 3.2804C10.5838 3.4844 10.4698 3.7734 10.4888 4.0684C10.4978 4.2084 10.4978 4.3464 10.4978 4.4944C10.4978 7.0514 9.85475 8.5634 9.49975 8.9374C9.34875 8.7714 9.07475 8.3354 8.84375 7.4444C8.75375 7.0964 8.48375 6.8234 8.13675 6.7294C7.78775 6.6374 7.41775 6.7364 7.16475 6.9914L6.18075 7.9844C3.26975 10.9514 3.27375 15.7854 6.18875 18.7564C7.60175 20.2024 9.48475 20.9984 11.4918 21.0004H11.4998C13.5088 21.0004 15.3958 20.2044 16.8148 18.7574C19.7318 15.7854 19.7268 10.9514 16.8058 7.9864Z" fill="#FF8A00"/>
<mask id="mask0_846:13763" style="mask-type:alpha" maskUnits="userSpaceOnUse" x="4" y="3" width="15" height="19">
<path fill-rule="evenodd" clip-rule="evenodd" d="M13.9588 18.0234C13.2918 18.6604 12.4088 19.0064 11.4708 19.0004H11.4698C10.5328 18.9924 9.65575 18.6314 8.99975 17.9844C7.65075 16.6554 7.66875 14.5074 9.04075 13.1984L11.2038 11.1304C11.2928 11.0454 11.4128 10.9994 11.5388 11.0004C11.6638 11.0014 11.7838 11.0494 11.8708 11.1354L13.9998 13.2364C15.3488 14.5664 15.3308 16.7134 13.9588 18.0234ZM16.8058 7.9864L12.2128 3.2954C11.8308 2.9044 11.1938 2.9044 10.7978 3.2804C10.5838 3.4844 10.4698 3.7734 10.4888 4.0684C10.4978 4.2084 10.4978 4.3464 10.4978 4.4944C10.4978 7.0514 9.85475 8.5634 9.49975 8.9374C9.34875 8.7714 9.07475 8.3354 8.84375 7.4444C8.75375 7.0964 8.48375 6.8234 8.13675 6.7294C7.78775 6.6374 7.41775 6.7364 7.16475 6.9914L6.18075 7.9844C3.26975 10.9514 3.27375 15.7854 6.18875 18.7564C7.60175 20.2024 9.48475 20.9984 11.4918 21.0004H11.4998C13.5088 21.0004 15.3958 20.2044 16.8148 18.7574C19.7318 15.7854 19.7268 10.9514 16.8058 7.9864Z" fill="white"/>
</mask></svg>
