<svg width="87" height="19" viewBox="0 0 87 19" fill="none" xmlns="http://www.w3.org/2000/svg">
<path d="M18.1104 1.7218V17.8424H20.3884V0.127197L18.1104 1.7218Z" fill="white"/>
<path fill-rule="evenodd" clip-rule="evenodd" d="M7.9426 15.9746C10.2282 15.9746 12.2025 14.6154 13.0909 12.6563L14.9741 13.9776C13.6528 16.5214 10.9951 18.2526 7.935 18.2526C3.5537 18.2526 0 14.699 0 10.3176C0 5.93617 3.5537 2.38257 7.935 2.38257C11.0179 2.38257 13.6908 4.13657 15.0044 6.70317L13.1137 8.03197L4.0169 14.3876C5.0344 15.3672 6.4164 15.9746 7.9426 15.9746ZM7.9426 4.66817C4.8218 4.66817 2.2856 7.20427 2.2856 10.3252C2.2856 11.0997 2.4375 11.8363 2.726 12.5121L11.7924 6.18677C10.7825 5.24527 9.4309 4.66817 7.9426 4.66817Z" fill="white"/>
<path d="M70.3288 10.2414L76.7458 17.8423H73.7458L68.8338 12.0182L63.9508 17.8423L60.959 17.8727L67.3528 10.2641L60.9818 2.70117L63.9964 2.72397L68.8488 8.48727L73.6858 2.72397H76.6318L70.3288 10.2414Z" fill="white"/>
<path fill-rule="evenodd" clip-rule="evenodd" d="M53.7836 16.02C56.1452 16.02 58.1726 14.5621 59.0155 12.5043L60.9214 13.8408C59.6305 16.4756 56.9197 18.298 53.7836 18.298C49.4023 18.298 45.8486 14.7444 45.8486 10.363C45.8486 5.98168 49.4023 2.42798 53.7836 2.42798C56.8589 2.42798 59.5166 4.16688 60.8379 6.71818L60.6101 6.87768L59.957 7.33328L58.9395 8.04698L49.8351 14.4103C50.8526 15.405 52.2498 16.02 53.7836 16.02ZM57.6031 6.20188C56.5932 5.27548 55.2492 4.70598 53.7761 4.70598C50.6628 4.70598 48.119 7.24218 48.1266 10.363C48.1266 11.1223 48.2785 11.8513 48.5518 12.5195L57.6031 6.20188Z" fill="white"/>
<path d="M31.6273 2.36938L31.6258 2.36719L29.7578 3.67319L29.7601 3.67645L29.3633 3.95422V17.8424H31.6413V6.36221L39.6823 17.8424L42.902 17.8425V2.39771L40.624 3.9923V15.2183L31.6413 2.38928V2.35962L31.6273 2.36938Z" fill="white"/>
<path d="M26.0602 2.43555V5.07805L23.7822 6.67265L23.7898 4.02265L26.0602 2.43555Z" fill="white"/>
<path d="M23.8047 9.30749V17.8424H26.0827V7.71289L23.8047 9.30749Z" fill="white"/>
<path d="M81.1501 13.1497C81.1501 13.1497 81.3701 15.7087 84.6661 15.7087C85.3791 15.7087 86.0401 15.5113 86.5871 15.1772V17.6754C85.9191 17.9108 85.1211 18.0171 84.4001 17.9867C81.5901 17.8652 78.8721 16.0732 78.8721 13.1497V1.84326H81.1501V13.1497Z" fill="white"/>
<path fill-rule="evenodd" clip-rule="evenodd" d="M78.8801 0.0739746V2.51897H77.5361V4.79698H85.5841L78.8801 0.0739746Z" fill="#EF0D33"/>
</svg>
