<svg width="28" height="28" viewBox="0 0 28 28" fill="none" xmlns="http://www.w3.org/2000/svg">
<path d="M22.0999 0.0720215L27.6639 5.87202V27.928H6.87891V28H27.7349V5.94502L22.0999 0.0720215Z" fill="#909090"/>
<path d="M22.0311 0H6.80811V27.928H27.6641V5.873L22.0301 0" fill="#F4F4F4"/>
<path d="M6.65514 1.5H0.265137V8.327H20.3651V1.5H6.65514Z" fill="#7A7B7C"/>
<path d="M20.472 8.21091H0.39502V1.37891H20.472V8.21091Z" fill="#DD2025"/>
<path d="M7.05212 2.53394H5.74512V7.33394H6.77312V5.71494L7.00012 5.72794C7.22069 5.72414 7.43919 5.68463 7.64712 5.61094C7.82942 5.54823 7.99713 5.44924 8.14012 5.31994C8.28562 5.19676 8.40033 5.04129 8.47512 4.86594C8.57541 4.57443 8.61124 4.26463 8.58012 3.95794C8.57387 3.73884 8.53546 3.52186 8.46612 3.31394C8.40299 3.16384 8.30931 3.02854 8.19103 2.91663C8.07275 2.80472 7.93247 2.71866 7.77912 2.66394C7.64653 2.61593 7.50953 2.5811 7.37012 2.55994C7.26454 2.54365 7.15794 2.53496 7.05112 2.53394H7.05212ZM6.86212 4.82794H6.77312V3.34794H6.96612C7.0513 3.34179 7.13677 3.35487 7.21622 3.3862C7.29566 3.41753 7.36706 3.46631 7.42512 3.52894C7.54544 3.68995 7.60971 3.88594 7.60812 4.08694C7.60812 4.33294 7.60812 4.55594 7.38612 4.71294C7.22618 4.8009 7.04414 4.8405 6.86212 4.82694" fill="#464648"/>
<path d="M10.5332 2.52094C10.4222 2.52094 10.3142 2.52894 10.2382 2.53194L10.0002 2.53794H9.22021V7.33794H10.1382C10.489 7.34756 10.8383 7.2881 11.1662 7.16294C11.4301 7.05826 11.6638 6.88952 11.8462 6.67194C12.0236 6.4524 12.1509 6.19678 12.2192 5.92294C12.2978 5.61281 12.3361 5.29385 12.3332 4.97394C12.3526 4.5961 12.3234 4.21733 12.2462 3.84694C12.173 3.5743 12.0359 3.32303 11.8462 3.11394C11.6974 2.9451 11.5152 2.80891 11.3112 2.71394C11.136 2.63286 10.9517 2.5731 10.7622 2.53594C10.6869 2.52349 10.6106 2.51781 10.5342 2.51894L10.5332 2.52094ZM10.3522 6.45594H10.2522V3.39194H10.2652C10.4714 3.36822 10.68 3.40542 10.8652 3.49894C11.0009 3.60727 11.1114 3.74374 11.1892 3.89894C11.2732 4.06228 11.3216 4.24155 11.3312 4.42494C11.3402 4.64494 11.3312 4.82494 11.3312 4.97394C11.3353 5.14558 11.3242 5.31724 11.2982 5.48694C11.2674 5.66117 11.2104 5.82974 11.1292 5.98694C11.0373 6.1331 10.9131 6.25625 10.7662 6.34694C10.6428 6.42674 10.4967 6.46397 10.3502 6.45294" fill="#464648"/>
<path d="M15.43 2.53809H13V7.33809H14.028V5.43409H15.328V4.54209H14.028V3.43009H15.428V2.53809" fill="#464648"/>
<path d="M19.7812 18.255C19.7812 18.255 22.9692 17.677 22.9692 18.766C22.9692 19.855 20.9942 19.412 19.7812 18.255ZM17.4242 18.338C16.9177 18.4499 16.4241 18.6138 15.9512 18.827L16.3512 17.927C16.7512 17.027 17.1662 15.8 17.1662 15.8C17.6435 16.6033 18.1988 17.3577 18.8242 18.052C18.3526 18.1223 17.8852 18.2185 17.4242 18.34V18.338ZM16.1622 11.838C16.1622 10.889 16.4692 10.63 16.7082 10.63C16.9472 10.63 17.2162 10.745 17.2252 11.569C17.1473 12.3976 16.9738 13.2143 16.7082 14.003C16.3443 13.3408 16.156 12.5966 16.1612 11.841L16.1622 11.838ZM11.5132 22.354C10.5352 21.769 13.5642 19.968 14.1132 19.91C14.1102 19.911 12.5372 22.966 11.5132 22.354ZM23.9002 18.895C23.8902 18.795 23.8002 17.688 21.8302 17.735C21.0091 17.7218 20.1883 17.7797 19.3772 17.908C18.5914 17.1164 17.9148 16.2235 17.3652 15.253C17.7115 14.2524 17.921 13.2097 17.9882 12.153C17.9592 10.953 17.6722 10.265 16.7522 10.275C15.8322 10.285 15.6982 11.09 15.8192 12.288C15.9377 13.0931 16.1613 13.8791 16.4842 14.626C16.4842 14.626 16.0592 15.949 15.4972 17.265C14.9352 18.581 14.5512 19.271 14.5512 19.271C13.5739 19.5891 12.6539 20.0618 11.8262 20.671C11.0022 21.438 10.6672 22.027 11.1012 22.616C11.4752 23.124 12.7842 23.239 13.9542 21.706C14.5758 20.9142 15.1438 20.0817 15.6542 19.214C15.6542 19.214 17.4382 18.725 17.9932 18.591C18.5482 18.457 19.2192 18.351 19.2192 18.351C19.2192 18.351 20.8482 19.99 22.4192 19.932C23.9902 19.874 23.9142 18.993 23.9042 18.897" fill="#DD2025"/>
<path d="M21.9541 0.0769043V5.9499H27.5871L21.9541 0.0769043Z" fill="#909090"/>
<path d="M22.0308 0V5.873H27.6638L22.0308 0Z" fill="#F4F4F4"/>
<path d="M6.97497 2.45703H5.66797V7.25703H6.69997V5.63903L6.92797 5.65203C7.14854 5.64824 7.36704 5.60872 7.57497 5.53503C7.75726 5.4723 7.92496 5.37331 8.06797 5.24403C8.21238 5.12052 8.32604 4.96508 8.39997 4.79003C8.50026 4.49853 8.53609 4.18873 8.50497 3.88203C8.49872 3.66294 8.46031 3.44595 8.39097 3.23803C8.32784 3.08794 8.23416 2.95263 8.11588 2.84072C7.9976 2.72882 7.85732 2.64276 7.70397 2.58803C7.57077 2.53956 7.4331 2.50439 7.29297 2.48303C7.18739 2.46674 7.08079 2.45805 6.97397 2.45703H6.97497ZM6.78497 4.75103H6.69597V3.27103H6.88997C6.97515 3.26489 7.06062 3.27797 7.14007 3.30929C7.21952 3.34062 7.29091 3.3894 7.34897 3.45203C7.46929 3.61305 7.53356 3.80903 7.53197 4.01003C7.53197 4.25603 7.53197 4.47903 7.30997 4.63603C7.15004 4.724 6.96799 4.7636 6.78597 4.75003" fill="white"/>
<path d="M10.456 2.44404C10.345 2.44404 10.237 2.45204 10.161 2.45504L9.926 2.46104H9.146V7.26104H10.064C10.4148 7.27065 10.7641 7.21119 11.092 7.08604C11.3559 6.98136 11.5896 6.81262 11.772 6.59504C11.9494 6.37549 12.0767 6.11987 12.145 5.84604C12.2236 5.53591 12.2619 5.21695 12.259 4.89704C12.2784 4.51919 12.2492 4.14042 12.172 3.77004C12.0988 3.4974 11.9617 3.24613 11.772 3.03704C11.6232 2.8682 11.441 2.73201 11.237 2.63704C11.0618 2.55595 10.8775 2.49619 10.688 2.45904C10.6127 2.44659 10.5364 2.4409 10.46 2.44204L10.456 2.44404ZM10.278 6.37904H10.178V3.31504H10.191C10.3972 3.29132 10.6057 3.32851 10.791 3.42204C10.9267 3.53036 11.0372 3.66684 11.115 3.82204C11.199 3.98537 11.2473 4.16464 11.257 4.34804C11.266 4.56804 11.257 4.74804 11.257 4.89704C11.2611 5.06867 11.25 5.24034 11.224 5.41004C11.1932 5.58427 11.1362 5.75284 11.055 5.91004C10.9631 6.05619 10.8389 6.17934 10.692 6.27004C10.5686 6.34983 10.4225 6.38706 10.276 6.37604" fill="white"/>
<path d="M15.3529 2.46094H12.9229V7.26094H13.9509V5.35694H15.2509V4.46494H13.9509V3.35294H15.3509V2.46094" fill="white"/>
</svg>
