<svg width="16" height="17" viewBox="0 0 16 17" fill="none" xmlns="http://www.w3.org/2000/svg">
<path fill-rule="evenodd" clip-rule="evenodd" d="M6.66699 6.46759C6.94966 6.70359 7.36966 6.66492 7.60566 6.38225C7.84166 6.09959 7.80299 5.67892 7.52033 5.44359L4.97365 3.32125C4.9529 3.30359 4.92952 3.29207 4.90602 3.2805C4.89404 3.27459 4.88203 3.26867 4.87032 3.26192C4.86175 3.2569 4.8535 3.25162 4.8453 3.24637C4.82734 3.23487 4.80958 3.22349 4.78899 3.21525C4.71099 3.18459 4.62965 3.16659 4.54699 3.16659C4.46432 3.16659 4.38299 3.18459 4.30499 3.21525C4.28439 3.22349 4.26663 3.23487 4.24867 3.24637C4.24047 3.25162 4.23223 3.2569 4.22365 3.26192C4.21194 3.26867 4.19993 3.27459 4.18795 3.2805C4.16445 3.29207 4.14107 3.30359 4.12032 3.32125L1.57365 5.44359C1.29032 5.67892 1.25232 6.09959 1.48832 6.38225C1.72365 6.66492 2.14365 6.70359 2.42699 6.46759L3.88032 5.25659L3.88032 13.1666C3.88032 13.5346 4.17899 13.8333 4.54699 13.8333C4.91499 13.8333 5.21365 13.5346 5.21365 13.1666L5.21365 5.25659L6.66699 6.46759ZM9.33333 10.5323C9.05067 10.2963 8.63067 10.3349 8.39467 10.6176C8.15867 10.9003 8.19733 11.3209 8.48 11.5563L11.0267 13.6786C11.0474 13.6962 11.0708 13.7078 11.0943 13.7193C11.1063 13.7252 11.1183 13.7312 11.13 13.7379C11.1386 13.7429 11.1468 13.7482 11.155 13.7535C11.173 13.765 11.1907 13.7763 11.2113 13.7846C11.2893 13.8153 11.3707 13.8333 11.4533 13.8333C11.536 13.8333 11.6173 13.8153 11.6953 13.7846C11.7159 13.7763 11.7337 13.765 11.7517 13.7535C11.7599 13.7482 11.7681 13.7429 11.7767 13.7379C11.7884 13.7312 11.8004 13.7252 11.8124 13.7193C11.8359 13.7078 11.8593 13.6962 11.88 13.6786L14.4267 11.5563C14.71 11.3209 14.748 10.9003 14.512 10.6176C14.2767 10.3349 13.8567 10.2963 13.5733 10.5323L12.12 11.7433L12.12 3.83325C12.12 3.46525 11.8213 3.16658 11.4533 3.16658C11.0853 3.16658 10.7867 3.46525 10.7867 3.83325L10.7867 11.7433L9.33333 10.5323Z" fill="#798594"/>
<mask id="mask0_677:7808" style="mask-type:alpha" maskUnits="userSpaceOnUse" x="1" y="3" width="14" height="11">
<path fill-rule="evenodd" clip-rule="evenodd" d="M9.3335 10.5324C9.05083 10.2964 8.63083 10.3351 8.39483 10.6177C8.15883 10.9004 8.1975 11.3211 8.48016 11.5564L11.0268 13.6787C11.0476 13.6964 11.071 13.7079 11.0945 13.7195C11.1064 13.7254 11.1185 13.7313 11.1302 13.7381C11.1387 13.7431 11.147 13.7484 11.1552 13.7536C11.1731 13.7651 11.1909 13.7765 11.2115 13.7847C11.2895 13.8154 11.3708 13.8334 11.4535 13.8334C11.5362 13.8334 11.6175 13.8154 11.6955 13.7847C11.7161 13.7765 11.7339 13.7651 11.7518 13.7536C11.76 13.7484 11.7683 13.7431 11.7768 13.7381C11.7885 13.7313 11.8006 13.7254 11.8125 13.7195C11.836 13.7079 11.8594 13.6964 11.8802 13.6787L14.4268 11.5564C14.7102 11.3211 14.7482 10.9004 14.5122 10.6177C14.2768 10.3351 13.8568 10.2964 13.5735 10.5324L12.1202 11.7434V3.83341C12.1202 3.46541 11.8215 3.16675 11.4535 3.16675C11.0855 3.16675 10.7868 3.46541 10.7868 3.83341V11.7434L9.3335 10.5324ZM6.66715 6.46775C6.94982 6.70375 7.36982 6.66508 7.60582 6.38242C7.84182 6.09975 7.80315 5.67908 7.52049 5.44375L4.97382 3.32141C4.95306 3.30375 4.92968 3.29223 4.90618 3.28066C4.8942 3.27475 4.88219 3.26884 4.87048 3.26208C4.86191 3.25706 4.85367 3.25178 4.84546 3.24653C4.82751 3.23503 4.80974 3.22365 4.78915 3.21541C4.71115 3.18475 4.62982 3.16675 4.54715 3.16675C4.46448 3.16675 4.38315 3.18475 4.30515 3.21541C4.28456 3.22365 4.26679 3.23503 4.24884 3.24653C4.24063 3.25178 4.23239 3.25706 4.22382 3.26208C4.21211 3.26884 4.2001 3.27475 4.18811 3.28066C4.16462 3.29223 4.14123 3.30375 4.12048 3.32141L1.57382 5.44375C1.29048 5.67908 1.25248 6.09975 1.48848 6.38242C1.72382 6.66508 2.14382 6.70375 2.42715 6.46775L3.88048 5.25675V13.1667C3.88048 13.5347 4.17915 13.8334 4.54715 13.8334C4.91515 13.8334 5.21382 13.5347 5.21382 13.1667V5.25675L6.66715 6.46775Z" fill="#231F20"/>
</mask></svg>
