<svg width="16" height="17" viewBox="0 0 16 17" fill="none" xmlns="http://www.w3.org/2000/svg">
<path fill-rule="evenodd" clip-rule="evenodd" d="M7.60566 6.38225C7.36966 6.66492 6.94966 6.70359 6.66699 6.46759L5.21365 5.25659L5.21365 13.1666C5.21365 13.5346 4.91499 13.8333 4.54699 13.8333C4.17899 13.8333 3.88032 13.5346 3.88032 13.1666L3.88032 5.25659L2.42699 6.46759C2.14365 6.70359 1.72365 6.66492 1.48832 6.38225C1.25232 6.09959 1.29032 5.67892 1.57365 5.44359L4.12032 3.32125C4.15165 3.29459 4.18899 3.28192 4.22365 3.26192C4.25099 3.24592 4.27499 3.22725 4.30499 3.21525C4.38299 3.18459 4.46432 3.16659 4.54699 3.16659C4.62965 3.16659 4.71099 3.18459 4.78899 3.21525C4.81899 3.22725 4.84299 3.24592 4.87032 3.26192C4.90499 3.28192 4.94232 3.29459 4.97365 3.32125L7.52033 5.44359C7.80299 5.67892 7.84166 6.09959 7.60566 6.38225Z" fill="#EF0D33"/>
<path fill-rule="evenodd" clip-rule="evenodd" d="M8.39434 10.6177C8.63034 10.3351 9.05034 10.2964 9.33301 10.5324L10.7863 11.7434L10.7863 3.83341C10.7863 3.46541 11.085 3.16675 11.453 3.16675C11.821 3.16675 12.1197 3.46541 12.1197 3.83341L12.1197 11.7434L13.573 10.5324C13.8563 10.2964 14.2763 10.3351 14.5117 10.6177C14.7477 10.9004 14.7097 11.3211 14.4263 11.5564L11.8797 13.6787C11.8483 13.7054 11.811 13.7181 11.7763 13.7381C11.749 13.7541 11.725 13.7727 11.695 13.7847C11.617 13.8154 11.5357 13.8334 11.453 13.8334C11.3703 13.8334 11.289 13.8154 11.211 13.7847C11.181 13.7727 11.157 13.7541 11.1297 13.7381C11.095 13.7181 11.0577 13.7054 11.0263 13.6787L8.47967 11.5564C8.19701 11.3211 8.15834 10.9004 8.39434 10.6177Z" fill="#798594"/>
</svg>
