<svg width="24" height="25" viewBox="0 0 24 25" fill="none" xmlns="http://www.w3.org/2000/svg">
<path fill-rule="evenodd" clip-rule="evenodd" d="M21.6828 10.8261C21.6755 10.8419 21.6683 10.8578 21.6615 10.874C21.6546 10.8908 21.6492 10.9082 21.6438 10.9257C21.6351 10.954 21.6264 10.9822 21.6115 11.007C21.5819 11.056 21.5433 11.0972 21.5045 11.1385C21.4934 11.1502 21.4824 11.162 21.4715 11.174C21.4594 11.1865 21.4487 11.2003 21.438 11.214C21.4231 11.2331 21.4081 11.2523 21.3895 11.268C21.3335 11.3137 21.2688 11.3455 21.2043 11.3772C21.1997 11.3795 21.1951 11.3817 21.1905 11.384C21.1769 11.3906 21.1639 11.3989 21.1509 11.4073C21.1325 11.4191 21.114 11.431 21.0935 11.438C20.9855 11.478 20.8705 11.5 20.7515 11.5C20.6975 11.5 20.6415 11.496 20.5865 11.486L16.3365 10.781C15.7915 10.691 15.4235 10.176 15.5135 9.631C15.6035 9.087 16.1175 8.714 16.6635 8.809L18.3075 9.081C17.0625 6.895 14.6855 5.5 12.0695 5.5C9.11049 5.5 6.50349 7.218 5.42649 9.875C5.26949 10.265 4.89449 10.5 4.49949 10.5C4.37449 10.5 4.24749 10.477 4.12449 10.427C3.61249 10.22 3.36549 9.637 3.57349 9.125C4.95749 5.708 8.29249 3.5 12.0695 3.5C15.4815 3.5 18.5825 5.37 20.1475 8.288L20.5165 6.315C20.6185 5.773 21.1425 5.414 21.6835 5.518C22.2265 5.619 22.5845 6.142 22.4825 6.685L21.7335 10.685C21.7239 10.736 21.7033 10.781 21.6828 10.8261ZM18.5734 15.1252C18.7804 14.6122 19.3644 14.3662 19.8754 14.5732C20.3874 14.7802 20.6344 15.3632 20.4264 15.8752C19.0424 19.2922 15.7074 21.5002 11.9304 21.5002C8.51839 21.5002 5.41739 19.6302 3.85239 16.7122L3.48239 18.6842C3.39339 19.1652 2.97339 19.5002 2.50039 19.5002C2.43939 19.5002 2.37739 19.4942 2.31539 19.4822C1.77239 19.3812 1.41539 18.8582 1.51739 18.3152L2.26639 14.3152C2.274 14.2759 2.29083 14.2411 2.30774 14.206C2.31752 14.1858 2.32733 14.1655 2.33539 14.1442C2.3433 14.1243 2.35021 14.1037 2.35712 14.083C2.37208 14.0383 2.3871 13.9935 2.41239 13.9552C2.42715 13.9324 2.44645 13.9142 2.46586 13.8959C2.47802 13.8844 2.49023 13.8729 2.50139 13.8602C2.5102 13.85 2.51891 13.8397 2.52761 13.8295C2.5752 13.7734 2.62236 13.7178 2.68239 13.6772C2.68829 13.6729 2.69533 13.6703 2.7023 13.6678C2.70832 13.6656 2.71429 13.6634 2.71939 13.6602C2.81639 13.5972 2.92039 13.5482 3.03539 13.5232C3.0424 13.5216 3.04969 13.522 3.05696 13.5224C3.06319 13.5228 3.0694 13.5231 3.07539 13.5222C3.18539 13.5042 3.29639 13.4932 3.41339 13.5132L7.66339 14.2192C8.20839 14.3082 8.57639 14.8242 8.48639 15.3692C8.40539 15.8582 7.98139 16.2052 7.50039 16.2052C7.44639 16.2052 7.39139 16.2012 7.33639 16.1912L5.69239 15.9192C6.93739 18.1052 9.31439 19.5002 11.9304 19.5002C14.8894 19.5002 17.4964 17.7822 18.5734 15.1252Z" fill="#2C333F"/>
<mask id="mask0_899:5891" style="mask-type:alpha" maskUnits="userSpaceOnUse" x="1" y="3" width="22" height="19">
<path fill-rule="evenodd" clip-rule="evenodd" d="M21.6828 10.8261C21.6755 10.8419 21.6683 10.8578 21.6615 10.874C21.6546 10.8908 21.6492 10.9082 21.6438 10.9257C21.6351 10.954 21.6264 10.9822 21.6115 11.007C21.5819 11.056 21.5433 11.0972 21.5045 11.1385C21.4934 11.1502 21.4824 11.162 21.4715 11.174C21.4594 11.1865 21.4487 11.2003 21.438 11.214C21.4231 11.2331 21.4081 11.2523 21.3895 11.268C21.3335 11.3137 21.2688 11.3455 21.2043 11.3772C21.1997 11.3795 21.1951 11.3817 21.1905 11.384C21.1769 11.3906 21.1639 11.3989 21.1509 11.4073C21.1325 11.4191 21.114 11.431 21.0935 11.438C20.9855 11.478 20.8705 11.5 20.7515 11.5C20.6975 11.5 20.6415 11.496 20.5865 11.486L16.3365 10.781C15.7915 10.691 15.4235 10.176 15.5135 9.631C15.6035 9.087 16.1175 8.714 16.6635 8.809L18.3075 9.081C17.0625 6.895 14.6855 5.5 12.0695 5.5C9.11049 5.5 6.50349 7.218 5.42649 9.875C5.26949 10.265 4.89449 10.5 4.49949 10.5C4.37449 10.5 4.24749 10.477 4.12449 10.427C3.61249 10.22 3.36549 9.637 3.57349 9.125C4.95749 5.708 8.29249 3.5 12.0695 3.5C15.4815 3.5 18.5825 5.37 20.1475 8.288L20.5165 6.315C20.6185 5.773 21.1425 5.414 21.6835 5.518C22.2265 5.619 22.5845 6.142 22.4825 6.685L21.7335 10.685C21.7239 10.736 21.7033 10.781 21.6828 10.8261ZM18.5734 15.1252C18.7804 14.6122 19.3644 14.3662 19.8754 14.5732C20.3874 14.7802 20.6344 15.3632 20.4264 15.8752C19.0424 19.2922 15.7074 21.5002 11.9304 21.5002C8.51839 21.5002 5.41739 19.6302 3.85239 16.7122L3.48239 18.6842C3.39339 19.1652 2.97339 19.5002 2.50039 19.5002C2.43939 19.5002 2.37739 19.4942 2.31539 19.4822C1.77239 19.3812 1.41539 18.8582 1.51739 18.3152L2.26639 14.3152C2.274 14.2759 2.29083 14.2411 2.30774 14.206C2.31752 14.1858 2.32733 14.1655 2.33539 14.1442C2.3433 14.1243 2.35021 14.1037 2.35712 14.083C2.37208 14.0383 2.3871 13.9935 2.41239 13.9552C2.42715 13.9324 2.44645 13.9142 2.46586 13.8959C2.47802 13.8844 2.49023 13.8729 2.50139 13.8602C2.5102 13.85 2.51891 13.8397 2.52761 13.8295C2.5752 13.7734 2.62236 13.7178 2.68239 13.6772C2.68829 13.6729 2.69533 13.6703 2.7023 13.6678C2.70832 13.6656 2.71429 13.6634 2.71939 13.6602C2.81639 13.5972 2.92039 13.5482 3.03539 13.5232C3.0424 13.5216 3.04969 13.522 3.05696 13.5224C3.06319 13.5228 3.0694 13.5231 3.07539 13.5222C3.18539 13.5042 3.29639 13.4932 3.41339 13.5132L7.66339 14.2192C8.20839 14.3082 8.57639 14.8242 8.48639 15.3692C8.40539 15.8582 7.98139 16.2052 7.50039 16.2052C7.44639 16.2052 7.39139 16.2012 7.33639 16.1912L5.69239 15.9192C6.93739 18.1052 9.31439 19.5002 11.9304 19.5002C14.8894 19.5002 17.4964 17.7822 18.5734 15.1252Z" fill="white"/>
</mask></svg>
