<svg width="20" height="21" viewBox="0 0 20 21" fill="none" xmlns="http://www.w3.org/2000/svg">
<path fill-rule="evenodd" clip-rule="evenodd" d="M15 16.3333C15 16.7925 14.6267 17.1667 14.1667 17.1667H5.83335C5.37335 17.1667 5.00002 16.7925 5.00002 16.3333V7.16667H15V16.3333ZM8.33335 4.10667C8.33335 3.97751 8.51169 3.83334 8.75002 3.83334H11.25C11.4884 3.83334 11.6667 3.97751 11.6667 4.10667V5.50001H8.33335V4.10667ZM17.5 5.50001H16.6667H13.3334V4.10667C13.3334 3.03667 12.3992 2.16667 11.25 2.16667H8.75002C7.60085 2.16667 6.66669 3.03667 6.66669 4.10667V5.50001H3.33335H2.50002C2.04169 5.50001 1.66669 5.87501 1.66669 6.33334C1.66669 6.79167 2.04169 7.16667 2.50002 7.16667H3.33335V16.3333C3.33335 17.7117 4.45502 18.8333 5.83335 18.8333H14.1667C15.545 18.8333 16.6667 17.7117 16.6667 16.3333V7.16667H17.5C17.9584 7.16667 18.3334 6.79167 18.3334 6.33334C18.3334 5.87501 17.9584 5.50001 17.5 5.50001Z" fill="#798594"/>
<mask id="mask0_1058_6846" style="mask-type:alpha" maskUnits="userSpaceOnUse" x="1" y="2" width="18" height="17">
<path fill-rule="evenodd" clip-rule="evenodd" d="M15 16.3333C15 16.7925 14.6267 17.1667 14.1667 17.1667H5.83335C5.37335 17.1667 5.00002 16.7925 5.00002 16.3333V7.16667H15V16.3333ZM8.33335 4.10667C8.33335 3.97751 8.51169 3.83334 8.75002 3.83334H11.25C11.4884 3.83334 11.6667 3.97751 11.6667 4.10667V5.50001H8.33335V4.10667ZM17.5 5.50001H16.6667H13.3334V4.10667C13.3334 3.03667 12.3992 2.16667 11.25 2.16667H8.75002C7.60085 2.16667 6.66669 3.03667 6.66669 4.10667V5.50001H3.33335H2.50002C2.04169 5.50001 1.66669 5.87501 1.66669 6.33334C1.66669 6.79167 2.04169 7.16667 2.50002 7.16667H3.33335V16.3333C3.33335 17.7117 4.45502 18.8333 5.83335 18.8333H14.1667C15.545 18.8333 16.6667 17.7117 16.6667 16.3333V7.16667H17.5C17.9584 7.16667 18.3334 6.79167 18.3334 6.33334C18.3334 5.87501 17.9584 5.50001 17.5 5.50001Z" fill="white"/>
</mask>
</svg>
