<svg width="28" height="26" viewBox="0 0 28 26" fill="none" xmlns="http://www.w3.org/2000/svg">
<path d="M26.8062 1.6787e-06H7.70521C7.54867 -0.000129698 7.39364 0.0305722 7.24897 0.0903545C7.1043 0.150137 6.97282 0.237829 6.86204 0.348423C6.75126 0.459018 6.66335 0.590349 6.60332 0.734919C6.5433 0.879489 6.51234 1.03447 6.51221 1.191V6.5L17.5812 9.75L28.0002 6.5V1.191C28.0001 1.03438 27.9691 0.879323 27.909 0.734688C27.8489 0.590053 27.7609 0.458677 27.65 0.348069C27.5391 0.237462 27.4075 0.149791 27.2627 0.0900672C27.118 0.0303438 26.9628 -0.000261161 26.8062 1.6787e-06Z" fill="#41A5EE"/>
<path d="M28.0002 6.5H6.51221V13L17.5812 14.95L28.0002 13V6.5Z" fill="#2B7CD3"/>
<path d="M6.51221 13V19.5L16.9302 20.8L28.0002 19.5V13H6.51221Z" fill="#185ABD"/>
<path d="M7.70521 26H26.8052C26.9619 26.0004 27.1172 25.9699 27.2621 25.9102C27.407 25.8506 27.5387 25.7629 27.6497 25.6523C27.7607 25.5417 27.8487 25.4102 27.9089 25.2655C27.969 25.1208 28.0001 24.9657 28.0002 24.809V19.5H6.51221V24.809C6.51234 24.9655 6.5433 25.1205 6.60332 25.2651C6.66335 25.4097 6.75126 25.541 6.86204 25.6516C6.97282 25.7622 7.1043 25.8499 7.24897 25.9096C7.39364 25.9694 7.54867 26.0001 7.70521 26Z" fill="#103F91"/>
<path opacity="0.1" d="M14.4342 5.19995H6.51221V21.45H14.4342C14.7499 21.4484 15.0522 21.3225 15.2757 21.0996C15.4992 20.8766 15.6258 20.5746 15.6282 20.259V6.39095C15.6258 6.07529 15.4992 5.77327 15.2757 5.55034C15.0522 5.32741 14.7499 5.20152 14.4342 5.19995Z" fill="black"/>
<path opacity="0.2" d="M13.7832 5.8501H6.51221V22.1001H13.7832C14.0989 22.0985 14.4012 21.9726 14.6247 21.7497C14.8482 21.5268 14.9748 21.2248 14.9772 20.9091V7.0411C14.9748 6.72544 14.8482 6.42342 14.6247 6.20049C14.4012 5.97756 14.0989 5.85167 13.7832 5.8501Z" fill="black"/>
<path opacity="0.2" d="M13.7832 5.8501H6.51221V20.8001H13.7832C14.0989 20.7985 14.4012 20.6726 14.6247 20.4497C14.8482 20.2268 14.9748 19.9248 14.9772 19.6091V7.0411C14.9748 6.72544 14.8482 6.42342 14.6247 6.20049C14.4012 5.97756 14.0989 5.85167 13.7832 5.8501Z" fill="black"/>
<path opacity="0.2" d="M13.1322 5.8501H6.51221V20.8001H13.1322C13.4479 20.7985 13.7502 20.6726 13.9737 20.4497C14.1972 20.2268 14.3238 19.9248 14.3262 19.6091V7.0411C14.3238 6.72544 14.1972 6.42342 13.9737 6.20049C13.7502 5.97756 13.4479 5.85167 13.1322 5.8501Z" fill="black"/>
<path d="M1.194 5.8501H13.132C13.4482 5.84983 13.7516 5.97513 13.9755 6.19846C14.1994 6.42179 14.3255 6.72487 14.326 7.0411V18.9591C14.3255 19.2753 14.1994 19.5784 13.9755 19.8017C13.7516 20.0251 13.4482 20.1504 13.132 20.1501H1.194C1.03738 20.1504 0.882244 20.1198 0.737458 20.06C0.592672 20.0003 0.461075 19.9126 0.350189 19.802C0.239303 19.6914 0.151301 19.56 0.0912137 19.4154C0.0311263 19.2708 0.000131172 19.1157 0 18.9591V7.0411C0.000131172 6.88448 0.0311263 6.72942 0.0912137 6.58479C0.151301 6.44015 0.239303 6.30877 0.350189 6.19817C0.461075 6.08756 0.592672 5.99989 0.737458 5.94016C0.882244 5.88044 1.03738 5.84984 1.194 5.8501Z" fill="url(#paint0_linear_200:7363)"/>
<path d="M4.89994 14.9881C4.92294 15.1721 4.93894 15.3321 4.94594 15.4691H4.97394C4.98394 15.3391 5.00594 15.1821 5.03894 14.9991C5.07194 14.8161 5.10094 14.6611 5.12794 14.5341L6.38294 9.12712H8.00694L9.30694 14.4531C9.38266 14.7826 9.43678 15.1166 9.46894 15.4531H9.49094C9.51483 15.1255 9.55992 14.7999 9.62594 14.4781L10.6649 9.12012H12.1419L10.3179 16.8681H8.59094L7.35394 11.7421C7.31794 11.5941 7.27728 11.4015 7.23194 11.1641C7.18661 10.9268 7.15861 10.7535 7.14794 10.6441H7.12694C7.11294 10.7701 7.08494 10.9571 7.04294 11.2051C7.00094 11.4541 6.96794 11.6371 6.94294 11.7571L5.77994 16.8711H4.02394L2.18994 9.12712H3.68994L4.82094 14.5451C4.8547 14.6914 4.88106 14.8392 4.89994 14.9881Z" fill="white"/>
<defs>
<linearGradient id="paint0_linear_200:7363" x1="2.494" y1="4.9141" x2="11.832" y2="21.0861" gradientUnits="userSpaceOnUse">
<stop stop-color="#2368C4"/>
<stop offset="0.5" stop-color="#1A5DBE"/>
<stop offset="1" stop-color="#1146AC"/>
</linearGradient>
</defs>
</svg>
